<svg width="105" height="90" viewBox="0 0 105 90" fill="none" xmlns="http://www.w3.org/2000/svg">
<g clip-path="url(#clip0_7_28)">
<path d="M82.4688 20.8125C81.8584 20.1731 81.0911 19.6568 80.2215 19.3003C79.352 18.9439 78.4015 18.756 77.4376 18.75H74.8126L75.4688 15.5625C75.5918 14.805 75.5392 14.0342 75.314 13.2941C75.0887 12.5541 74.6954 11.8595 74.1563 11.25C72.8997 10.1099 71.1723 9.43683 69.3438 9.375H17.0626C15.9023 9.375 14.7895 9.77009 13.969 10.4733C13.1485 11.1766 12.6876 12.1304 12.6876 13.125C12.6876 14.1196 13.1485 15.0734 13.969 15.7766C14.7895 16.4799 15.9023 16.875 17.0626 16.875H66.2813L57.5313 59.8125C56.5438 61.0076 55.8038 62.3396 55.3438 63.75H45.2813C44.3294 61.0534 42.3904 58.6909 39.751 57.0118C37.1116 55.3328 33.912 54.4262 30.6251 54.4262C27.3382 54.4262 24.1385 55.3328 21.4991 57.0118C18.8598 58.6909 16.9208 61.0534 15.9688 63.75H13.5626L14.6563 58.3125C14.8482 57.344 14.5891 56.3496 13.9346 55.5431C13.28 54.7367 12.2825 54.1826 11.1563 54C10.0264 53.8355 8.86628 54.0577 7.92543 54.6187C6.98458 55.1797 6.33813 56.0347 6.12509 57L4.37509 65.0625C4.24068 65.8337 4.30837 66.6208 4.57323 67.3668C4.8381 68.1127 5.2935 68.7988 5.90634 69.375C6.47056 69.9514 7.17274 70.4172 7.96532 70.7407C8.7579 71.0642 9.62235 71.2379 10.5001 71.25H15.9688C16.9208 73.9466 18.8598 76.3091 21.4991 77.9881C24.1385 79.6672 27.3382 80.5738 30.6251 80.5738C33.912 80.5738 37.1116 79.6672 39.751 77.9881C42.3904 76.3091 44.3294 73.9466 45.2813 71.25H55.3438C56.2958 73.9466 58.2348 76.3091 60.8741 77.9881C63.5135 79.6672 66.7132 80.5738 70.0001 80.5738C73.287 80.5738 76.4867 79.6672 79.126 77.9881C81.7654 76.3091 83.7044 73.9466 84.6563 71.25H89.0313C90.6753 71.2232 92.2559 70.7012 93.4958 69.7756C94.7358 68.8499 95.556 67.5796 95.8126 66.1875L100.625 42.1875L82.4688 20.8125ZM30.6251 73.125C28.8846 73.125 27.2154 72.5324 25.9847 71.4775C24.754 70.4226 24.0626 68.9918 24.0626 67.5C24.0626 66.0082 24.754 64.5774 25.9847 63.5225C27.2154 62.4676 28.8846 61.875 30.6251 61.875C32.3656 61.875 34.0348 62.4676 35.2655 63.5225C36.4962 64.5774 37.1876 66.0082 37.1876 67.5C37.1876 68.9918 36.4962 70.4226 35.2655 71.4775C34.0348 72.5324 32.3656 73.125 30.6251 73.125ZM73.2813 26.25H76.1251L89.0313 41.25H70.2188L73.2813 26.25ZM70.0001 73.125C68.2596 73.125 66.5904 72.5324 65.3597 71.4775C64.129 70.4226 63.4376 68.9918 63.4376 67.5C63.4376 66.0082 64.129 64.5774 65.3597 63.5225C66.5904 62.4676 68.2596 61.875 70.0001 61.875C71.7406 61.875 73.4098 62.4676 74.6405 63.5225C75.8712 64.5774 76.5626 66.0082 76.5626 67.5C76.5626 68.9918 75.8712 70.4226 74.6405 71.4775C73.4098 72.5324 71.7406 73.125 70.0001 73.125ZM87.5001 63.75H84.6563C83.7151 61.0439 81.7806 58.6701 79.1403 56.9812C76.5 55.2923 73.2946 54.3783 70.0001 54.375H67.5938L68.6876 48.5625H90.3438L87.5001 63.75Z" fill="#EF7F00"/>
<path d="M8.75 28.125H30.625C31.7853 28.125 32.8981 27.7299 33.7186 27.0266C34.5391 26.3234 35 25.3696 35 24.375C35 23.3804 34.5391 22.4266 33.7186 21.7234C32.8981 21.0201 31.7853 20.625 30.625 20.625H8.75C7.58968 20.625 6.47688 21.0201 5.65641 21.7234C4.83594 22.4266 4.375 23.3804 4.375 24.375C4.375 25.3696 4.83594 26.3234 5.65641 27.0266C6.47688 27.7299 7.58968 28.125 8.75 28.125Z" fill="#FDCF6D"/>
<path d="M32.8125 35.875C32.8125 34.8804 32.3516 33.9266 31.5311 33.2234C30.7106 32.5201 29.5978 32.125 28.4375 32.125H10.9375C9.77718 32.125 8.66438 32.5201 7.84391 33.2234C7.02344 33.9266 6.5625 34.8804 6.5625 35.875C6.5625 36.8696 7.02344 37.8234 7.84391 38.5266C8.66438 39.2299 9.77718 39.625 10.9375 39.625H28.4375C29.5978 39.625 30.7106 39.2299 31.5311 38.5266C32.3516 37.8234 32.8125 36.8696 32.8125 35.875Z" fill="#FDCF6D"/>
<path d="M13.125 43.625C11.9647 43.625 10.8519 44.0201 10.0314 44.7234C9.21094 45.4266 8.75 46.3804 8.75 47.375C8.75 48.3696 9.21094 49.3234 10.0314 50.0266C10.8519 50.7299 11.9647 51.125 13.125 51.125H26.25C27.4103 51.125 28.5231 50.7299 29.3436 50.0266C30.1641 49.3234 30.625 48.3696 30.625 47.375C30.625 46.3804 30.1641 45.4266 29.3436 44.7234C28.5231 44.0201 27.4103 43.625 26.25 43.625H13.125Z" fill="#FDCF6D"/>
</g>
<rect x="0.5" y="0.5" width="104" height="89" stroke="black"/>
<defs>
<clipPath id="clip0_7_28">
<rect width="105" height="90" fill="white"/>
</clipPath>
</defs>
</svg>
