<svg width="100" height="100" viewBox="0 0 100 100" fill="none" xmlns="http://www.w3.org/2000/svg">
<g clip-path="url(#clip0_7_52)">
<path d="M49.9997 31.6089C48.4783 31.6089 47.2449 30.3755 47.2449 28.854V22.5205C47.2449 20.999 48.4783 19.7656 49.9997 19.7656C51.5212 19.7656 52.7546 20.999 52.7546 22.5205V28.854C52.7546 30.3755 51.5212 31.6089 49.9997 31.6089Z" fill="#EF7F00"/>
<path d="M67.4927 30.4791C66.7874 30.4791 66.0828 30.2101 65.5449 29.6722L60.092 24.2192C59.0162 23.1434 59.0162 21.3991 60.092 20.3233C61.1678 19.2479 62.9119 19.2475 63.9879 20.3233L69.4407 25.7764C70.5165 26.8521 70.5165 28.5965 69.4407 29.6722C68.9029 30.2101 68.1976 30.4791 67.4927 30.4791Z" fill="#EF7F00"/>
<path d="M32.5067 30.4793C31.8018 30.4793 31.0967 30.2103 30.5589 29.6725C29.4831 28.5967 29.4829 26.8524 30.5589 25.7766L36.0117 20.3235C37.0875 19.2477 38.8318 19.2475 39.9076 20.3235C40.9834 21.3995 40.9836 23.1436 39.9076 24.2194L34.4547 29.6725C33.9168 30.2103 33.2118 30.4793 32.5067 30.4793Z" fill="#EF7F00"/>
<path d="M94.4065 60.8259H5.5927C4.02514 60.8259 2.75464 59.5554 2.75464 57.9878V51.7072C2.75464 50.1396 4.02514 48.8691 5.5927 48.8691H94.4063C95.9738 48.8691 97.2443 50.1396 97.2443 51.7072V57.9878C97.2443 59.5554 95.9738 60.8259 94.4065 60.8259Z" fill="#FDCF6D"/>
<path d="M81.6886 60.8257L61.4792 80.1167L41.27 60.8257H81.6886Z" fill="#FDCF6D"/>
<path d="M96.4575 46.509C96.4828 45.3246 96.4731 44.1344 96.3619 43.1371C95.4284 33.4944 90.7169 24.5728 83.0931 18.0145C75.4617 11.4493 65.5579 7.8335 55.2062 7.8335H44.2038C24.318 7.8335 7.23432 21.156 3.58278 39.5118C3.28591 41.0041 4.25504 42.4541 5.74703 42.7512C7.23901 43.049 8.68978 42.0789 8.98645 40.587C12.1269 24.8009 26.9381 13.3434 44.2038 13.3434H55.2062C73.8797 13.3434 89.2159 26.3884 90.8796 43.6875C90.8809 43.7031 90.8827 43.7186 90.8844 43.7344C90.9581 44.3834 90.9678 45.268 90.955 46.1144H5.59273C2.50877 46.1143 0 48.623 0 51.707V57.9876C0 60.2018 1.29686 62.1143 3.16794 63.0198V72.989C3.16794 83.563 11.7706 92.1658 22.3447 92.1658H77.6545C88.2284 92.1658 96.8313 83.5632 96.8313 72.989C96.8313 71.4676 95.5979 70.2342 94.0764 70.2342C92.5549 70.2342 91.3216 71.4676 91.3216 72.989C91.3216 80.5251 85.1905 86.6561 77.6545 86.6561H22.3447C14.8087 86.6561 8.67767 80.5251 8.67767 72.989V63.5805H17.2069L29.2324 75.0595C29.7646 75.5677 30.4494 75.8218 31.1345 75.8218C31.8193 75.8218 32.5044 75.5679 33.0367 75.0595L37.8796 70.4369C38.9802 69.3865 39.0206 67.6428 37.9702 66.5422C36.9198 65.4416 35.1761 65.4008 34.0755 66.4516L31.1347 69.2584L25.1863 63.5805H40.1663L59.5775 82.1093C60.1097 82.6173 60.7945 82.8716 61.4796 82.8716C62.1648 82.8716 62.8495 82.6177 63.3817 82.1093L82.7929 63.5805H94.4071C97.4908 63.5805 99.9998 61.0718 99.9998 57.9878V51.7072C99.9992 49.3476 98.5285 47.3291 96.4575 46.509ZM61.4792 76.3084L48.1455 63.5807H74.8131L61.4792 76.3084ZM94.4897 57.9878C94.4897 58.0339 94.4526 58.071 94.4065 58.071H81.6886H41.27H5.59273C5.54664 58.071 5.50953 58.0335 5.50953 57.9878V51.7072C5.50953 51.6611 5.54664 51.624 5.59273 51.624H94.4063C94.4524 51.624 94.4895 51.6615 94.4895 51.7072L94.4897 57.9878Z" fill="#EF7F00"/>
</g>
<defs>
<clipPath id="clip0_7_52">
<rect width="100" height="100" fill="white"/>
</clipPath>
</defs>
</svg>
