<svg width="100" height="100" viewBox="0 0 100 100" fill="none" xmlns="http://www.w3.org/2000/svg">
<g clip-path="url(#clip0_7_41)">
<path d="M99.9273 43.2888C99.3254 37.7549 96.6248 32.6527 91.6525 29.2775C75.2968 18.1791 62.4474 27.5234 51.9345 25.189C41.4197 22.8513 31.3267 16.5297 25.0658 14.6742C11.6129 10.6886 -1.40999 21.5761 0.124778 35.3767V44.4021C-0.293582 48.0724 0.318723 52.0748 2.28552 56.1449C11.8269 75.9111 49.425 87.981 72.9609 85.9332C89.7029 84.4793 99.1871 72.3621 100 60.7545C100 60.7545 99.9748 43.1084 99.9273 43.2888ZM94.181 50.4506C92.2582 57.8332 85.5535 66.1283 72.5054 67.2634C70.9402 67.4002 69.2685 67.4691 67.5431 67.4691C56.3318 67.4691 42.8467 64.5814 31.4683 59.7457C19.1994 54.5304 10.5164 47.6707 7.0199 40.4265C4.5406 35.2922 4.66521 30.0886 7.37243 25.7775C9.95818 21.6588 14.5662 19.1 19.3953 19.1C20.7884 19.1 22.1935 19.3058 23.5715 19.714C25.6529 20.3312 28.6181 21.7078 31.7588 23.1666C37.141 25.6646 43.8369 28.7748 50.7929 30.3197C52.3597 30.6672 54.0009 30.8359 55.8125 30.8359C58.7759 30.8359 61.7884 30.3703 64.7031 29.9166C67.7037 29.4529 70.8074 28.972 73.9461 28.972C79.3316 28.972 84.0207 30.4496 88.6994 33.6257C94.8793 37.8189 95.5826 45.0666 94.181 50.4506Z" fill="#EB7575"/>
<path d="M55.8123 36.2099C53.5673 36.2099 51.5113 35.9958 49.5261 35.5536C48.7031 35.3714 47.89 35.1675 47.082 34.9497L30.6824 52.513C31.6792 52.9868 32.6962 53.4544 33.7539 53.9028C35.9687 54.844 38.2691 55.7009 40.6154 56.4769L59.7271 36.0089C58.4402 36.1323 57.1296 36.2099 55.8123 36.2099Z" fill="#B71E1E"/>
<path d="M85.4995 38.0498L64.0178 61.0561C65.2137 61.1219 66.3926 61.159 67.543 61.159C69.0963 61.159 70.5959 61.0982 71.9993 60.9768C84.6088 59.8787 87.8389 51.1568 88.527 48.5104C88.9624 46.8441 90.0163 41.1904 85.4995 38.0498Z" fill="#B71E1E"/>
<path d="M31.9069 29.2002L17.8079 44.2994C20.0292 46.283 22.7483 48.2057 25.887 50.0105L41.5698 33.2129C38.1122 31.9748 34.8602 30.5529 31.9069 29.2002Z" fill="#B71E1E"/>
<path d="M73.9457 34.3442C71.9859 34.3442 69.9921 34.572 67.9226 34.8706L46.1931 58.1435C49.9578 59.1437 53.7646 59.9128 57.4753 60.4239L80.7177 35.5302C78.5757 34.7323 76.3763 34.3442 73.9457 34.3442Z" fill="#B71E1E"/>
<path d="M21.9135 24.8483C21.0735 24.5987 20.2251 24.4722 19.3954 24.4722C16.5583 24.4722 13.8462 25.9835 12.3196 28.4157C10.2704 31.6794 11.1659 35.1134 12.279 37.4175C12.7751 38.4464 13.4309 39.4753 14.2219 40.5022L26.9212 26.8993C24.9446 25.9987 23.1094 25.2024 21.9135 24.8483Z" fill="#B71E1E"/>
</g>
<defs>
<clipPath id="clip0_7_41">
<rect width="100" height="100" fill="white"/>
</clipPath>
</defs>
</svg>
